<svg width="900" height="1100" viewBox="0 0 900 1100" fill="none" xmlns="http://www.w3.org/2000/svg">
  <rect width="900" height="1100" fill="url(#bg)"/>
  <rect y="794" width="900" height="306" fill="url(#floor)"/>
  <rect x="134" y="214" width="632" height="32" rx="16" fill="#8A5B3A"/>
  <rect x="154" y="246" width="592" height="22" rx="11" fill="#C67F51"/>
  <circle cx="242" cy="500" r="114" fill="url(#ring)"/>
  <circle cx="242" cy="500" r="58" fill="#F0E2D2"/>
  <rect x="392" y="356" width="110" height="266" rx="55" fill="#E5D5C0"/>
  <rect x="414" y="292" width="66" height="86" rx="33" fill="#B9784C"/>
  <rect x="602" y="408" width="94" height="220" rx="18" fill="#8E6748"/>
  <rect x="626" y="350" width="46" height="74" rx="18" fill="#6A976D"/>
  <ellipse cx="648" cy="326" rx="82" ry="90" fill="#89B183"/>
  <path d="M170 736H734" stroke="#E7DAC9" stroke-width="18" stroke-linecap="round"/>
  <defs>
    <linearGradient id="bg" x1="450" y1="0" x2="450" y2="1100" gradientUnits="userSpaceOnUse">
      <stop stop-color="#F8F3EA"/>
      <stop offset="1" stop-color="#E1C7A4"/>
    </linearGradient>
    <linearGradient id="floor" x1="450" y1="794" x2="450" y2="1100" gradientUnits="userSpaceOnUse">
      <stop stop-color="#DEC9A8"/>
      <stop offset="1" stop-color="#C79D77"/>
    </linearGradient>
    <radialGradient id="ring" cx="0" cy="0" r="1" gradientUnits="userSpaceOnUse" gradientTransform="translate(242 500) rotate(90) scale(114)">
      <stop stop-color="#D07A4A"/>
      <stop offset="1" stop-color="#B8613E"/>
    </radialGradient>
  </defs>
</svg>
