<svg width="900" height="700" viewBox="0 0 900 700" fill="none" xmlns="http://www.w3.org/2000/svg">
  <rect width="900" height="700" fill="url(#bg)"/>
  <rect y="518" width="900" height="182" fill="url(#floor)"/>
  <rect x="114" y="112" width="274" height="264" rx="20" fill="#EADBC7"/>
  <rect x="146" y="144" width="210" height="200" rx="14" fill="#FBF6EF"/>
  <g filter="url(#shadow)">
    <rect x="468" y="316" width="266" height="136" rx="32" fill="url(#sofa)"/>
    <rect x="494" y="282" width="212" height="72" rx="24" fill="#A55F39"/>
  </g>
  <rect x="186" y="420" width="186" height="72" rx="28" fill="#C88454"/>
  <rect x="204" y="490" width="148" height="22" rx="11" fill="#EEE0D0"/>
  <rect x="664" y="184" width="18" height="258" rx="9" fill="#6A8E67"/>
  <ellipse cx="674" cy="162" rx="74" ry="82" fill="#8FB486"/>
  <ellipse cx="740" cy="208" rx="46" ry="58" fill="#73986F"/>
  <defs>
    <linearGradient id="bg" x1="450" y1="0" x2="450" y2="700" gradientUnits="userSpaceOnUse">
      <stop stop-color="#F6EFE6"/>
      <stop offset="1" stop-color="#E1C7A4"/>
    </linearGradient>
    <linearGradient id="floor" x1="450" y1="518" x2="450" y2="700" gradientUnits="userSpaceOnUse">
      <stop stop-color="#D8BE9B"/>
      <stop offset="1" stop-color="#C69973"/>
    </linearGradient>
    <linearGradient id="sofa" x1="601" y1="282" x2="601" y2="452" gradientUnits="userSpaceOnUse">
      <stop stop-color="#B56E44"/>
      <stop offset="1" stop-color="#8E5A3C"/>
    </linearGradient>
    <filter id="shadow" x="432" y="246" width="338" height="270" filterUnits="userSpaceOnUse" color-interpolation-filters="sRGB">
      <feDropShadow dx="0" dy="18" stdDeviation="18" flood-color="#6D503E" flood-opacity="0.16"/>
    </filter>
  </defs>
</svg>
