<svg width="900" height="640" viewBox="0 0 900 640" fill="none" xmlns="http://www.w3.org/2000/svg">
  <rect width="900" height="640" fill="url(#bg)"/>
  <rect x="94" y="114" width="212" height="414" rx="24" fill="#C27A49"/>
  <rect x="344" y="114" width="212" height="414" rx="24" fill="#A86B43"/>
  <rect x="594" y="114" width="212" height="414" rx="24" fill="#8D5C3E"/>
  <path d="M160 118C196 214 126 290 176 386C212 454 170 492 206 528" stroke="#865336" stroke-width="18" stroke-linecap="round"/>
  <path d="M406 118C444 198 384 296 430 388C462 452 430 486 462 528" stroke="#72492F" stroke-width="18" stroke-linecap="round"/>
  <path d="M656 118C694 202 632 304 680 396C714 462 674 494 710 528" stroke="#5D3D28" stroke-width="18" stroke-linecap="round"/>
  <defs>
    <linearGradient id="bg" x1="450" y1="0" x2="450" y2="640" gradientUnits="userSpaceOnUse">
      <stop stop-color="#F8F0E4"/>
      <stop offset="1" stop-color="#E0C29C"/>
    </linearGradient>
  </defs>
</svg>
