<svg width="1200" height="1200" viewBox="0 0 1200 1200" fill="none" xmlns="http://www.w3.org/2000/svg">
  <rect width="1200" height="1200" fill="url(#bg)"/>
  <rect y="846" width="1200" height="354" fill="url(#floor)"/>
  <rect x="114" y="126" width="972" height="654" rx="34" fill="#FBF7F0"/>
  <rect x="166" y="186" width="266" height="480" rx="24" fill="#E8D8C4"/>
  <g filter="url(#shadow)">
    <rect x="470" y="236" width="264" height="246" rx="28" fill="url(#sofa)"/>
    <rect x="500" y="204" width="204" height="60" rx="20" fill="#9E5E39"/>
  </g>
  <rect x="792" y="222" width="170" height="444" rx="20" fill="#8E6B4C"/>
  <rect x="824" y="262" width="108" height="18" rx="9" fill="#EEDFCF"/>
  <rect x="824" y="304" width="84" height="14" rx="7" fill="#E1D2C1"/>
  <rect x="240" y="714" width="720" height="24" rx="12" fill="#EADCC8"/>
  <rect x="286" y="768" width="244" height="50" rx="25" fill="#C97C4C"/>
  <rect x="562" y="768" width="194" height="50" rx="25" fill="#E8D7C0"/>
  <rect x="786" y="768" width="134" height="50" rx="25" fill="#B88C67"/>
  <rect x="994" y="194" width="18" height="354" rx="9" fill="#6A8F69"/>
  <ellipse cx="1004" cy="174" rx="88" ry="98" fill="#83A97D"/>
  <defs>
    <linearGradient id="bg" x1="600" y1="0" x2="600" y2="1200" gradientUnits="userSpaceOnUse">
      <stop stop-color="#F3E9DB"/>
      <stop offset="1" stop-color="#DDC19E"/>
    </linearGradient>
    <linearGradient id="floor" x1="600" y1="846" x2="600" y2="1200" gradientUnits="userSpaceOnUse">
      <stop stop-color="#D7BD99"/>
      <stop offset="1" stop-color="#C29672"/>
    </linearGradient>
    <linearGradient id="sofa" x1="602" y1="204" x2="602" y2="482" gradientUnits="userSpaceOnUse">
      <stop stop-color="#B56E44"/>
      <stop offset="1" stop-color="#8F5A3C"/>
    </linearGradient>
    <filter id="shadow" x="430" y="164" width="344" height="390" filterUnits="userSpaceOnUse" color-interpolation-filters="sRGB">
      <feDropShadow dx="0" dy="22" stdDeviation="20" flood-color="#6C503E" flood-opacity="0.16"/>
    </filter>
  </defs>
</svg>
