<svg width="1400" height="1100" viewBox="0 0 1400 1100" fill="none" xmlns="http://www.w3.org/2000/svg">
  <rect width="1400" height="1100" fill="#EEE7DC"/>
  <rect width="1400" height="650" fill="url(#sky)"/>
  <rect y="650" width="1400" height="450" fill="#CBB8A2"/>
  <path d="M130 710L488 460L910 460L1220 710V836H130V710Z" fill="#EDE3D5"/>
  <path d="M90 724L492 406L938 406L1270 724V760H90V724Z" fill="#8C6C58"/>
  <rect x="202" y="520" width="202" height="212" fill="#DDB995"/>
  <rect x="430" y="520" width="182" height="212" fill="#BD7A52"/>
  <rect x="644" y="520" width="182" height="212" fill="#D6B08C"/>
  <rect x="858" y="520" width="190" height="212" fill="#BD7A52"/>
  <rect x="590" y="606" width="120" height="230" fill="#A86A46"/>
  <rect x="562" y="580" width="176" height="40" fill="#B79A80"/>
  <path d="M174 820H1082L1160 1100H86L174 820Z" fill="url(#ground)"/>
  <rect x="112" y="836" width="1176" height="16" fill="#8B725F"/>
  <path d="M182 904H1224" stroke="#F6EADA" stroke-width="2" opacity="0.3"/>
  <path d="M230 958H1180" stroke="#F6EADA" stroke-width="2" opacity="0.22"/>
  <circle cx="1140" cy="178" r="92" fill="#E2A66F" opacity="0.82"/>
  <defs>
    <linearGradient id="sky" x1="700" y1="0" x2="700" y2="650" gradientUnits="userSpaceOnUse">
      <stop stop-color="#7F695A"/>
      <stop offset="0.55" stop-color="#A3836E"/>
      <stop offset="1" stop-color="#D4B08A"/>
    </linearGradient>
    <linearGradient id="ground" x1="623" y1="820" x2="623" y2="1100" gradientUnits="userSpaceOnUse">
      <stop stop-color="#DCCDBA"/>
      <stop offset="1" stop-color="#B09A83"/>
    </linearGradient>
  </defs>
</svg>
